<svg xmlns="http://www.w3.org/2000/svg" width="128" height="128" viewBox="0 0 128 128" fill="none">
  <defs>
    <radialGradient id="pin_grad_light" cx="0" cy="0" r="1" gradientUnits="userSpaceOnUse" gradientTransform="translate(64 52) rotate(90) scale(44 44)">
      <stop offset="0" stop-color="#6AE3FF"/>
      <stop offset="1" stop-color="#A78BFA"/>
    </radialGradient>
  </defs>
  <!-- Light-mode outline variant: white outline for contrast on white backgrounds -->
  <path d="M64 12c-22.091 0-40 17.909-40 40 0 26.39 33.06 57.01 36.33 59.87 1.07.93 2.27 1.13 3.34 1.13s2.27-.2 3.34-1.13C70.94 109.01 104 78.39 104 52c0-22.091-17.909-40-40-40z" fill="url(#pin_grad_light)"/>
  <path d="M58 42l20 10-20 10V42z" fill="#041019" fill-opacity="0.92"/>
  <path d="M64 12c-22.091 0-40 17.909-40 40 0 26.39 33.06 57.01 36.33 59.87 1.07.93 2.27 1.13 3.34 1.13s2.27-.2 3.34-1.13C70.94 109.01 104 78.39 104 52c0-22.091-17.909-40-40-40z" fill="none" stroke="#FFFFFF" stroke-opacity="0.92" stroke-width="4"/>
</svg>