<svg xmlns="http://www.w3.org/2000/svg" width="1200" height="628" viewBox="0 0 1200 628" fill="none">
  <defs>
    <linearGradient id="g" x1="0" y1="0" x2="1200" y2="628" gradientUnits="userSpaceOnUse">
      <stop stop-color="#0B0F14"/>
      <stop offset="1" stop-color="#121721"/>
    </linearGradient>
    <linearGradient id="a" x1="80" y1="40" x2="1120" y2="588" gradientUnits="userSpaceOnUse">
      <stop stop-color="#6AE3FF"/>
      <stop offset="1" stop-color="#A78BFA"/>
    </linearGradient>
    <linearGradient id="sweep" x1="0" y1="0" x2="1" y2="1">
      <stop offset="0%" stop-color="#6AE3FF" stop-opacity="0.0"/>
      <stop offset="40%" stop-color="#6AE3FF" stop-opacity="0.25"/>
      <stop offset="60%" stop-color="#A78BFA" stop-opacity="0.25"/>
      <stop offset="100%" stop-color="#A78BFA" stop-opacity="0.0"/>
    </linearGradient>
    <filter id="blur" x="-20%" y="-20%" width="140%" height="140%">
      <feGaussianBlur stdDeviation="60"/>
    </filter>
  </defs>
  <rect width="1200" height="628" fill="url(#g)"/>
  <g opacity="0.8" filter="url(#blur)">
    <rect x="-100" y="80" width="800" height="180" rx="90" fill="url(#sweep)"/>
    <rect x="400" y="360" width="900" height="180" rx="90" fill="url(#sweep)"/>
  </g>
  <g transform="translate(80, 90)">
    <rect x="0" y="0" width="96" height="96" rx="24" fill="url(#a)"/>
    <path d="M44 28l32 22-32 22V28z" fill="#041019" fill-opacity="0.9"/>
    <path d="M20 34l10 28 10-28 10 28 10-28" stroke="#041019" stroke-opacity="0.9" stroke-width="6" stroke-linecap="round" stroke-linejoin="round"/>
  </g>
  <g transform="translate(200, 110)">
    <text x="0" y="0" font-family="Inter, Segoe UI, Roboto, Arial, sans-serif" font-size="56" font-weight="800" fill="#E6EDF3">Whot2Watch</text>
    <text x="0" y="48" font-family="Inter, Segoe UI, Roboto, Arial, sans-serif" font-size="22" fill="#9AA7B2">Smart picks across all your services</text>
  </g>
  <g transform="translate(200, 380)">
    <rect x="0" y="0" width="320" height="72" rx="12" fill="#0E1624" stroke="#1D2330"/>
    <text x="18" y="44" font-family="Inter, Segoe UI, Roboto, Arial, sans-serif" font-size="20" fill="#9AA7B2">Try it free • No spam</text>
    <g transform="translate(352, -6)">
      <rect x="0" y="0" width="200" height="84" rx="14" fill="#6AE3FF"/>
      <text x="20" y="52" font-family="Inter, Segoe UI, Roboto, Arial, sans-serif" font-size="24" font-weight="700" fill="#041019">Start Exploring</text>
    </g>
  </g>
</svg>